<svg xmlns="http://www.w3.org/2000/svg" version="1.1" xmlns:xlink="http://www.w3.org/1999/xlink" xmlns:svgjs="http://svgjs.dev/svgjs" width="1500" height="1500" viewBox="0 0 1500 1500"><rect width="1500" height="1500" fill="#ffffff"></rect><g transform="matrix(0.6666666666666666,0,0,0.6666666666666666,249.39393939393938,435.99032258064517)"><svg viewBox="0 0 396 248" data-background-color="#463746" preserveAspectRatio="xMidYMid meet" height="939" width="1500" xmlns="http://www.w3.org/2000/svg" xmlns:xlink="http://www.w3.org/1999/xlink"><g id="tight-bounds" transform="matrix(1,0,0,1,0.2400000000000091,0.4000000000000057)"><svg viewBox="0 0 395.52 247.2" height="247.2" width="395.52"><g><svg></svg></g><g><svg viewBox="0 0 395.52 247.2" height="247.2" width="395.52"><g transform="matrix(1,0,0,1,75.54432,94.63954053385646)"><svg viewBox="0 0 244.43135999999998 57.92091893228706" height="57.92091893228706" width="244.43135999999998"><g><svg viewBox="0 0 244.43135999999998 57.92091893228706" height="57.92091893228706" width="244.43135999999998"><g><svg viewBox="0 0 310.7408591351198 73.63374368540318" height="57.92091893228706" width="244.43135999999998"><g transform="matrix(1,0,0,1,0,10.176588309632422)"><svg viewBox="0 0 244.43135999999998 53.28056706613833" height="53.28056706613833" width="244.43135999999998"><g id="textblocktransform"><svg viewBox="0 0 244.43135999999998 53.28056706613833" height="53.28056706613833" width="244.43135999999998" id="textblock"><g><svg viewBox="0 0 244.43135999999998 31.476773093877554" height="31.476773093877554" width="244.43135999999998"><g transform="matrix(1,0,0,1,0,0)"><svg width="244.43135999999998" viewBox="4.88 -34.93 367.46 47.33" height="31.476773093877554" data-palette-color="#ffffff"><path d="M9.63 0L4.88 0 4.88-31.85 16.28-31.85Q21.85-31.85 24.76-29.21 27.68-26.58 27.68-22.28L27.68-22.28Q27.68-18.03 24.76-15.4 21.85-12.78 16.28-12.78L16.28-12.78 9.63-12.78 9.63 0ZM28.63 0L22.45 0 13.63-14.65 18.75-14.65 28.63 0ZM9.63-27.75L9.63-16.03 15.85-16.03Q19.25-16.03 21.03-17.66 22.8-19.3 22.8-21.9L22.8-21.9Q22.8-24.58 21.14-26.16 19.48-27.75 16.28-27.75L16.28-27.75 9.63-27.75ZM45.2 0.65L45.2 0.65Q41.92 0.65 39.34-0.78 36.75-2.2 35.25-5.03 33.75-7.85 33.75-12L33.75-12Q33.75-16.23 35.25-19.04 36.75-21.85 39.34-23.28 41.92-24.7 45.2-24.7L45.2-24.7Q48.42-24.7 51-23.28 53.57-21.85 55.06-19.04 56.55-16.23 56.55-12L56.55-12Q56.55-7.85 55.06-5.03 53.57-2.2 51-0.78 48.42 0.65 45.2 0.65ZM45.05-3.5L45.05-3.5Q47.12-3.5 48.64-4.5 50.15-5.5 50.96-7.41 51.77-9.33 51.77-12L51.77-12Q51.77-16.1 50.11-18.35 48.45-20.6 45.32-20.6L45.32-20.6Q43.22-20.6 41.71-19.59 40.2-18.57 39.39-16.66 38.57-14.75 38.57-12L38.57-12Q38.57-7.98 40.25-5.74 41.92-3.5 45.05-3.5ZM72.7 0.65L72.7 0.65Q69.2 0.65 66.8-0.34 64.4-1.33 63.13-3.09 61.87-4.85 61.82-7.23L61.82-7.23 66.3-7.23Q66.4-5.15 67.96-4.15 69.52-3.15 72.2-3.15L72.2-3.15Q73.62-3.15 74.78-3.6 75.95-4.05 76.63-4.83 77.32-5.6 77.32-6.58L77.32-6.58Q77.32-7.8 76.42-8.51 75.52-9.22 73.52-9.78L73.52-9.78 68.59-11.45Q65.65-12.45 64.07-14.11 62.5-15.78 62.5-18.1L62.5-18.1Q62.5-21.08 65.15-22.89 67.8-24.7 72.17-24.7L72.17-24.7Q76.7-24.7 79.16-22.79 81.62-20.88 81.72-18L81.72-18 77.15-18Q76.97-19.43 75.73-20.19 74.5-20.95 72.17-20.95L72.17-20.95Q70-20.95 68.76-20 67.52-19.05 67.52-17.85L67.52-17.85Q67.52-15.7 71.22-14.65L71.22-14.65 76.4-12.83Q79.34-11.88 80.95-10.38 82.55-8.88 82.55-6.58L82.55-6.58Q82.55-4.73 81.32-3.08 80.09-1.43 77.88-0.39 75.67 0.65 72.7 0.65ZM95.24 0L85.47-24.05 90.79-24.05 98.04-4.15 97.07-4.15 102.89-24.05 107.74-24.05 98.62 4.63Q97.37 8.53 95.41 10.46 93.44 12.4 90.49 12.4L90.49 12.4Q88.84 12.4 87.33 11.98 85.82 11.55 84.24 10.73L84.24 10.73 84.24 6.45Q85.59 7.4 86.84 7.83 88.09 8.25 89.44 8.25L89.44 8.25Q90.79 8.25 91.76 7.44 92.72 6.63 93.38 5.29 94.04 3.95 94.52 2.38L94.52 2.38 95.24 0ZM130.31 0L125.56 0 125.56-31.85 136.96-31.85Q142.54-31.85 145.45-29.21 148.36-26.58 148.36-22.28L148.36-22.28Q148.36-18.03 145.45-15.4 142.54-12.78 136.96-12.78L136.96-12.78 130.31-12.78 130.31 0ZM149.31 0L143.14 0 134.31-14.65 139.44-14.65 149.31 0ZM130.31-27.75L130.31-16.03 136.54-16.03Q139.94-16.03 141.71-17.66 143.49-19.3 143.49-21.9L143.49-21.9Q143.49-24.58 141.83-26.16 140.16-27.75 136.96-27.75L136.96-27.75 130.31-27.75ZM165.46 0.65L165.46 0.65Q162.36 0.65 159.86-0.95 157.36-2.55 155.9-5.4 154.44-8.25 154.44-12L154.44-12Q154.44-15.98 155.89-18.81 157.34-21.65 159.84-23.18 162.34-24.7 165.46-24.7L165.46-24.7Q168.26-24.7 170.26-23.56 172.26-22.43 173.49-20.51 174.71-18.6 175.17-16.18 175.64-13.75 175.34-11.18L175.34-11.18 158.24-11.18 158.24-13.93 172.09-13.93 170.94-13.18Q171.01-14.53 170.8-15.88 170.59-17.23 169.99-18.36 169.39-19.5 168.3-20.19 167.21-20.88 165.53-20.88L165.53-20.88Q163.44-20.88 162.02-19.83 160.61-18.78 159.89-17.01 159.16-15.25 159.16-13.15L159.16-13.15 159.16-11.23Q159.16-8.9 159.86-7.1 160.56-5.3 161.95-4.26 163.34-3.23 165.46-3.23L165.46-3.23Q167.53-3.23 168.9-4.2 170.26-5.18 170.59-7.13L170.59-7.13 175.44-7.13Q175.06-4.78 173.71-3.03 172.36-1.28 170.25-0.31 168.14 0.65 165.46 0.65ZM191.61 0.65L191.61 0.65Q188.66 0.65 186.11-0.93 183.56-2.5 182.01-5.35 180.46-8.2 180.46-12.05L180.46-12.05Q180.46-16.1 182.01-18.91 183.56-21.73 186.11-23.21 188.66-24.7 191.61-24.7L191.61-24.7Q193.78-24.7 195.48-24.01 197.18-23.33 198.41-22.16 199.63-21 200.4-19.55 201.16-18.1 201.46-16.55L201.46-16.55 196.63-16.3Q196.11-18.18 194.8-19.31 193.48-20.45 191.56-20.45L191.56-20.45Q189.93-20.45 188.5-19.54 187.06-18.63 186.17-16.76 185.28-14.9 185.28-12.05L185.28-12.05Q185.28-9.4 186.11-7.53 186.93-5.65 188.36-4.65 189.78-3.65 191.56-3.65L191.56-3.65Q194.11-3.65 195.37-4.89 196.63-6.13 196.63-8.3L196.63-8.3 201.46-8.3Q201.46-5.78 200.28-3.75 199.11-1.73 196.9-0.54 194.68 0.65 191.61 0.65ZM211.68-29.18L211.68-29.18Q210.25-29.18 209.44-29.96 208.63-30.75 208.63-32.1L208.63-32.1Q208.63-33.4 209.44-34.16 210.25-34.93 211.68-34.93L211.68-34.93Q213.08-34.93 213.89-34.16 214.71-33.4 214.71-32.1L214.71-32.1Q214.71-30.75 213.89-29.96 213.08-29.18 211.68-29.18ZM214.06 0L209.31 0 209.31-24.13 214.06-24.13 214.06 0ZM235.88 0.65L235.88 0.65Q233.25 0.65 231.33-0.54 229.4-1.73 228.39-4.04 227.38-6.35 227.38-9.78L227.38-9.78 229.23-9.78Q229.23-7.8 230.08-6.44 230.93-5.08 232.32-4.36 233.7-3.65 235.28-3.65L235.28-3.65Q236.93-3.65 238.49-4.59 240.05-5.53 241.05-7.4 242.05-9.28 242.05-12.05L242.05-12.05Q242.05-14.7 241.17-16.57 240.28-18.45 238.75-19.45 237.23-20.45 235.33-20.45L235.33-20.45Q233.73-20.45 232.33-19.69 230.93-18.93 230.08-17.46 229.23-16 229.23-13.9L229.23-13.9 227.38-13.9Q227.38-17.53 228.54-19.93 229.7-22.33 231.68-23.51 233.65-24.7 236.05-24.7L236.05-24.7Q238.88-24.7 241.35-23.19 243.83-21.68 245.37-18.85 246.9-16.03 246.9-12.05L246.9-12.05Q246.9-8.08 245.35-5.23 243.8-2.38 241.29-0.86 238.78 0.65 235.88 0.65ZM229.23 11.8L224.48 11.8 224.48-24.05 228.4-24.05 229.23-18.28 229.23 11.8ZM262.88 0.65L262.88 0.65Q259.78 0.65 257.28-0.95 254.78-2.55 253.31-5.4 251.85-8.25 251.85-12L251.85-12Q251.85-15.98 253.3-18.81 254.75-21.65 257.25-23.18 259.75-24.7 262.88-24.7L262.88-24.7Q265.68-24.7 267.68-23.56 269.68-22.43 270.9-20.51 272.13-18.6 272.59-16.18 273.05-13.75 272.75-11.18L272.75-11.18 255.65-11.18 255.65-13.93 269.5-13.93 268.35-13.18Q268.43-14.53 268.21-15.88 268-17.23 267.4-18.36 266.8-19.5 265.71-20.19 264.63-20.88 262.95-20.88L262.95-20.88Q260.85-20.88 259.44-19.83 258.03-18.78 257.3-17.01 256.58-15.25 256.58-13.15L256.58-13.15 256.58-11.23Q256.58-8.9 257.28-7.1 257.98-5.3 259.36-4.26 260.75-3.23 262.88-3.23L262.88-3.23Q264.95-3.23 266.31-4.2 267.68-5.18 268-7.13L268-7.13 272.85-7.13Q272.48-4.78 271.13-3.03 269.78-1.28 267.66-0.31 265.55 0.65 262.88 0.65ZM304.82 0L292.47 0 292.47-31.85 304.8-31.85Q308.37-31.85 310.73-30.7 313.1-29.55 314.27-27.65 315.45-25.75 315.45-23.48L315.45-23.48Q315.45-20.75 313.93-18.78 312.42-16.8 309.52-16.05L309.52-16.05Q311.42-15.73 312.87-14.69 314.32-13.65 315.16-12.13 316-10.6 316-8.75L316-8.75Q316-7.18 315.45-5.63 314.9-4.08 313.62-2.8 312.35-1.53 310.2-0.76 308.05 0 304.82 0L304.82 0ZM297.22-13.83L297.22-4.15 304.72-4.15Q307.97-4.15 309.43-5.5 310.9-6.85 310.9-9L310.9-9Q310.9-11.18 309.35-12.5 307.8-13.83 304.72-13.83L304.72-13.83 297.22-13.83ZM304.67-27.75L297.22-27.75 297.22-17.95 304.62-17.95Q307.4-17.95 308.98-19.28 310.57-20.6 310.57-22.95L310.57-22.95Q310.57-25.18 309.03-26.46 307.5-27.75 304.67-27.75L304.67-27.75ZM333.17 0.65L333.17 0.65Q329.89 0.65 327.31-0.78 324.72-2.2 323.22-5.03 321.72-7.85 321.72-12L321.72-12Q321.72-16.23 323.22-19.04 324.72-21.85 327.31-23.28 329.89-24.7 333.17-24.7L333.17-24.7Q336.39-24.7 338.97-23.28 341.54-21.85 343.03-19.04 344.52-16.23 344.52-12L344.52-12Q344.52-7.85 343.03-5.03 341.54-2.2 338.97-0.78 336.39 0.65 333.17 0.65ZM333.02-3.5L333.02-3.5Q335.09-3.5 336.61-4.5 338.12-5.5 338.93-7.41 339.74-9.33 339.74-12L339.74-12Q339.74-16.1 338.08-18.35 336.42-20.6 333.29-20.6L333.29-20.6Q331.19-20.6 329.68-19.59 328.17-18.57 327.36-16.66 326.54-14.75 326.54-12L326.54-12Q326.54-7.98 328.22-5.74 329.89-3.5 333.02-3.5ZM353.89 0L348.06 0 357.29-12 348.06-24.13 353.89-24.13 360.37-15.6 366.54-24.13 372.34-24.13 363.12-12 372.31 0 366.51 0 360.01-8.55 353.89 0Z" opacity="1" transform="matrix(1,0,0,1,0,0)" fill="#000000" class="wordmark-text-0" data-fill-palette-color="primary" id="text-0"></path></svg></g></svg></g><g transform="matrix(1,0,0,1,0,38.90768377878779)"><svg viewBox="0 0 143.50565145599998 14.372883287350543" height="14.372883287350543" width="143.50565145599998"><g transform="matrix(1,0,0,1,0,0)"><svg width="143.50565145599998" viewBox="1.75 -35.85 482.2 48.3" height="14.372883287350543" data-palette-color="#ffffff"><path d="M17.85 0.45L17.85 0.45Q13.1 0.45 9.5-1.78 5.9-4 3.83-7.98 1.75-11.95 1.75-17.15L1.75-17.15Q1.75-21.45 3.15-24.65 4.55-27.85 6.93-30 9.3-32.15 12.3-33.2 15.3-34.25 18.55-34.25L18.55-34.25Q21.6-34.25 24.25-33.6 26.9-32.95 29.6-31.65L29.6-31.65Q29.25-29.9 29.15-27.93 29.05-25.95 29.05-23.9L29.05-23.9Q28.4-23.65 27.65-23.53 26.9-23.4 26.05-23.4L26.05-23.4Q25.95-26.8 25.05-28.65 24.15-30.5 22.58-31.2 21-31.9 18.9-31.9L18.9-31.9Q15.95-31.9 13.83-30.78 11.7-29.65 10.38-27.78 9.05-25.9 8.43-23.5 7.8-21.1 7.8-18.5L7.8-18.5Q7.8-14.1 9.22-10.55 10.65-7 13.4-4.93 16.15-2.85 20.1-2.85L20.1-2.85Q22.4-2.85 24.8-3.6 27.2-4.35 29.25-5.65L29.25-5.65Q29.6-5.4 29.88-4.88 30.15-4.35 30.25-3.95L30.25-3.95Q27.45-1.75 24.58-0.65 21.7 0.45 17.85 0.45ZM46.05 0.45L46.05 0.45Q42.5 0.45 39.87-1.03 37.25-2.5 35.82-5.15 34.4-7.8 34.4-11.4L34.4-11.4Q34.4-14.9 35.92-17.6 37.45-20.3 40.1-21.83 42.75-23.35 46.1-23.35L46.1-23.35Q49.85-23.35 52.45-21.85 55.05-20.35 56.4-17.7 57.75-15.05 57.75-11.5L57.75-11.5Q57.75-8.05 56.3-5.33 54.85-2.6 52.22-1.07 49.6 0.45 46.05 0.45ZM46.55-2.2L46.55-2.2Q49.35-2.2 50.7-4.58 52.05-6.95 52.05-10.75L52.05-10.75Q52.05-13.85 51.17-16.13 50.3-18.4 48.82-19.58 47.35-20.75 45.6-20.75L45.6-20.75Q42.85-20.75 41.5-18.45 40.15-16.15 40.15-12.55L40.15-12.55Q40.15-9.35 40.92-7 41.7-4.65 43.15-3.43 44.6-2.2 46.55-2.2ZM73.25 0.45L73.25 0.45Q69.7 0.45 67.07-1.03 64.45-2.5 63.02-5.15 61.6-7.8 61.6-11.4L61.6-11.4Q61.6-14.9 63.12-17.6 64.65-20.3 67.3-21.83 69.95-23.35 73.3-23.35L73.3-23.35Q77.05-23.35 79.65-21.85 82.25-20.35 83.6-17.7 84.95-15.05 84.95-11.5L84.95-11.5Q84.95-8.05 83.5-5.33 82.05-2.6 79.42-1.07 76.8 0.45 73.25 0.45ZM73.75-2.2L73.75-2.2Q76.55-2.2 77.9-4.58 79.25-6.95 79.25-10.75L79.25-10.75Q79.25-13.85 78.37-16.13 77.5-18.4 76.02-19.58 74.55-20.75 72.8-20.75L72.8-20.75Q70.05-20.75 68.7-18.45 67.35-16.15 67.35-12.55L67.35-12.55Q67.35-9.35 68.12-7 68.9-4.65 70.35-3.43 71.8-2.2 73.75-2.2ZM88.59 0.15L88.59 0.15Q88.59-0.45 88.64-1.1 88.69-1.75 88.84-2.25L88.84-2.25Q90.84-2.3 91.57-3.2 92.29-4.1 92.29-6.6L92.29-6.6 92.29-28.45Q92.29-29.65 92.04-30.43 91.79-31.2 90.99-31.6 90.19-32 88.54-32L88.54-32Q88.54-32.6 88.64-33.15 88.74-33.7 88.99-34.15L88.99-34.15Q90.04-34.15 91.54-34.4 93.04-34.65 94.37-35.05 95.69-35.45 96.34-35.85L96.34-35.85Q96.84-35.65 97.19-35.15 97.54-34.65 97.54-33.65L97.54-33.65 97.54-6.6Q97.54-4.15 98.19-3.23 98.84-2.3 100.39-2.25L100.39-2.25Q100.54-1.75 100.59-1.05 100.64-0.35 100.64 0.15L100.64 0.15Q99.39 0.05 97.84 0.03 96.29 0 94.69 0L94.69 0Q93.64 0 92.52 0.03 91.39 0.05 90.39 0.08 89.39 0.1 88.59 0.15ZM106.89 0.45L106.89 0.45Q105.79-1.25 103.97-3.6 102.14-5.95 100.09-8.33 98.04-10.7 96.19-12.5L96.19-12.5 96.04-11.5 101.19-16.15Q102.84-17.6 103.49-18.5 104.14-19.4 104.14-19.85L104.14-19.85Q104.14-20.25 103.79-20.45 103.44-20.65 102.74-20.65L102.74-20.65Q102.54-21.25 102.47-21.83 102.39-22.4 102.39-23L102.39-23Q103.39-22.95 104.39-22.93 105.39-22.9 106.34-22.9 107.29-22.9 108.09-22.9L108.09-22.9Q109.04-22.9 110.27-22.93 111.49-22.95 112.79-23L112.79-23Q112.79-22.4 112.72-21.78 112.64-21.15 112.39-20.65L112.39-20.65Q111.39-20.6 110.44-20.3 109.49-20 108.49-19.38 107.49-18.75 106.24-17.6L106.24-17.6 101.09-12.9 100.89-14.75Q102.79-12.85 104.72-10.7 106.64-8.55 109.19-5.4L109.19-5.4Q110.09-4.25 110.79-3.65 111.49-3.05 112.24-2.78 112.99-2.5 114.09-2.4L114.09-2.4Q114.09-1.65 114.02-1.05 113.94-0.45 113.79 0L113.79 0Q112.54 0 111.39 0.05 110.24 0.1 109.12 0.18 107.99 0.25 106.89 0.45ZM127.64 0.15L127.64 0.15Q127.64-0.65 127.69-1.25 127.74-1.85 127.89-2.25L127.89-2.25Q129.24-2.35 129.99-2.75 130.74-3.15 131.04-4.1 131.34-5.05 131.34-6.8L131.34-6.8 131.34-27Q131.34-28.8 131.04-29.73 130.74-30.65 130.01-31.05 129.29-31.45 127.94-31.55L127.94-31.55Q127.74-32 127.69-32.6 127.64-33.2 127.64-33.95L127.64-33.95Q128.54-33.9 129.71-33.88 130.89-33.85 132.19-33.83 133.49-33.8 134.69-33.8 135.89-33.8 136.84-33.8L136.84-33.8 136.84-7.75Q136.84-5.6 137.31-4.45 137.79-3.3 138.81-2.85 139.84-2.4 141.49-2.25L141.49-2.25Q141.64-1.8 141.69-1.2 141.74-0.6 141.74 0.15L141.74 0.15Q140.99 0.1 139.86 0.08 138.74 0.05 137.46 0.03 136.19 0 134.94 0L134.94 0Q133.04 0 130.89 0.03 128.74 0.05 127.64 0.15ZM148.04-10.1L148.04-10.1Q147.29-10.1 146.66-10.15 146.04-10.2 145.44-10.4L145.44-10.4Q145.24-12.9 144.11-13.8 142.99-14.7 140.04-14.7L140.04-14.7 136.54-14.7 136.54-17.1 140.04-17.1Q143.04-17.1 144.16-17.9 145.29-18.7 145.34-21.05L145.34-21.05Q145.99-21.25 146.66-21.35 147.34-21.45 148.04-21.45L148.04-21.45Q147.99-20.2 147.96-18.75 147.94-17.3 147.94-15.95L147.94-15.95Q147.94-14.5 147.96-12.93 147.99-11.35 148.04-10.1ZM149.09-25.25L149.09-25.25Q148.94-26.85 148.24-28.28 147.54-29.7 145.86-30.63 144.19-31.55 141.09-31.55L141.09-31.55 135.44-31.55 136.64-33.8Q140.64-33.8 143.41-33.83 146.19-33.85 148.01-33.9 149.84-33.95 150.69-33.95L150.69-33.95Q150.79-32.85 150.94-31.35 151.09-29.85 151.29-28.43 151.49-27 151.74-25.9L151.74-25.9Q151.29-25.55 150.61-25.4 149.94-25.25 149.09-25.25ZM164.34-11.35L164.34-7.75Q164.34-5.6 164.79-4.45 165.24-3.3 166.26-2.85 167.29-2.4 168.94-2.25L168.94-2.25Q169.09-1.8 169.16-1.2 169.24-0.6 169.24 0.15L169.24 0.15Q168.44 0.1 167.34 0.08 166.24 0.05 164.99 0.03 163.74 0 162.49 0L162.49 0Q160.59 0 158.54 0.03 156.49 0.05 155.34 0.15L155.34 0.15Q155.34-0.65 155.39-1.25 155.44-1.85 155.64-2.25L155.64-2.25Q156.99-2.35 157.71-2.75 158.44-3.15 158.74-4.1 159.04-5.05 159.04-6.8L159.04-6.8 159.04-11.35 164.34-11.35ZM163.44-15.3L164.34-14.65 164.34-10.6 159.04-10.6 159.04-16.15 164.34-21Q164.34-19.45 164.04-18.1 163.74-16.75 163.44-15.3L163.44-15.3ZM164.34-11.9L163.24-15Q163.74-16.35 164.06-17.32 164.39-18.3 164.74-18.9L164.74-18.9Q165.84-20.65 167.36-21.8 168.89-22.95 170.89-22.95L170.89-22.95Q172.79-22.95 174.34-21.75L174.34-21.75Q174.24-20.9 174.14-19.78 174.04-18.65 174.01-17.53 173.99-16.4 173.99-15.45L173.99-15.45Q173.44-15.25 172.54-15.1 171.64-14.95 170.74-14.95L170.74-14.95Q170.64-17.2 170.01-17.98 169.39-18.75 168.39-18.75L168.39-18.75Q167.59-18.75 166.61-17.8 165.64-16.85 164.99-15.3 164.34-13.75 164.34-11.9L164.34-11.9ZM164.34-21L159.04-10.6 159.04-15.8Q159.04-17.1 158.81-17.88 158.59-18.65 157.79-19.05 156.99-19.45 155.34-19.5L155.34-19.5Q155.34-20.1 155.44-20.65 155.54-21.2 155.79-21.65L155.79-21.65Q157.69-21.75 159.84-22.25 161.99-22.75 163.14-23.35L163.14-23.35Q163.64-23.15 163.99-22.65 164.34-22.15 164.34-21L164.34-21ZM188.28 0.45L188.28 0.45Q184.53 0.45 182.11-1.15 179.68-2.75 178.46-5.45 177.23-8.15 177.23-11.4L177.23-11.4Q177.23-14.7 178.53-17.4 179.83-20.1 182.26-21.73 184.68-23.35 187.98-23.35L187.98-23.35Q191.33-23.35 193.38-21.95 195.43-20.55 196.46-18.2 197.48-15.85 197.63-12.9L197.63-12.9Q197.43-11.75 196.78-11L196.78-11Q195.78-11 194.06-11 192.33-11 190.21-10.98 188.08-10.95 185.86-10.88 183.63-10.8 181.68-10.7L181.68-10.7 181.68-13.45 191.98-13.45Q191.98-16.75 190.86-18.75 189.73-20.75 187.63-20.75L187.63-20.75Q186.43-20.75 185.33-20 184.23-19.25 183.53-17.48 182.83-15.7 182.83-12.55L182.83-12.55Q182.83-10.05 183.48-7.78 184.13-5.5 185.68-4.08 187.23-2.65 190.08-2.65L190.08-2.65Q191.73-2.65 193.36-3.35 194.98-4.05 196.23-5.35L196.23-5.35Q196.63-5.15 197.01-4.6 197.38-4.05 197.43-3.55L197.43-3.55Q195.68-1.4 193.41-0.48 191.13 0.45 188.28 0.45ZM217.83-21.65L217.83-21.65Q217.78-20.4 217.78-19.05 217.78-17.7 217.98-16.4L217.98-16.4Q217.43-16.1 216.66-15.93 215.88-15.75 215.08-15.75L215.08-15.75Q214.98-17.1 214.31-18.3 213.63-19.5 212.48-20.25 211.33-21 209.73-21L209.73-21Q208.28-21 207.43-20.3 206.58-19.6 206.58-18.45L206.58-18.45Q206.58-17.65 206.93-17.03 207.28-16.4 208.53-15.68 209.78-14.95 212.38-13.9L212.38-13.9Q215.13-12.9 216.68-11.88 218.23-10.85 218.91-9.63 219.58-8.4 219.58-6.6L219.58-6.6Q219.58-4.5 218.36-2.9 217.13-1.3 214.96-0.43 212.78 0.45 210.03 0.45L210.03 0.45Q206.98 0.45 205.16-0.03 203.33-0.5 201.53-1.35L201.53-1.35Q201.68-2.2 201.71-3.35 201.73-4.5 201.73-5.63 201.73-6.75 201.63-7.55L201.63-7.55Q202.08-7.9 202.93-8.05 203.78-8.2 204.58-8.2L204.58-8.2Q204.98-5.15 206.46-3.65 207.93-2.15 210.38-2.15L210.38-2.15Q212.23-2.15 213.31-2.98 214.38-3.8 214.38-5.15L214.38-5.15Q214.38-6 213.96-6.65 213.53-7.3 212.43-7.93 211.33-8.55 209.13-9.4L209.13-9.4Q206.53-10.45 204.91-11.4 203.28-12.35 202.53-13.68 201.78-15 201.78-17.05L201.78-17.05Q201.78-18.65 202.58-19.85 203.38-21.05 204.66-21.83 205.93-22.6 207.46-22.98 208.98-23.35 210.38-23.35L210.38-23.35Q212.78-23.35 214.53-22.93 216.28-22.5 217.83-21.65ZM247.23-14.95L247.23-6.6Q247.23-4.05 247.93-3.15 248.63-2.25 250.08-2.25L250.08-2.25Q250.23-1.75 250.3-1.2 250.38-0.65 250.38 0.15L250.38 0.15Q249.28 0.05 247.78 0.03 246.28 0 244.68 0L244.68 0Q243.68 0 242.48 0.03 241.28 0.05 240.23 0.08 239.18 0.1 238.38 0.15L238.38 0.15Q238.38-0.6 238.43-1.2 238.48-1.8 238.68-2.25L238.68-2.25Q240.38-2.25 241.18-3.2 241.98-4.15 241.98-6.7L241.98-6.7 241.98-13.65Q241.98-17.1 240.75-18.35 239.53-19.6 237.58-19.6L237.58-19.6Q236.28-19.6 235.03-18.75 233.78-17.9 232.95-16.1 232.13-14.3 232.13-11.35L232.13-11.35 232.13-6.6Q232.13-4.1 232.85-3.18 233.58-2.25 235.43-2.25L235.43-2.25Q235.58-1.75 235.65-1.18 235.73-0.6 235.73 0.15L235.73 0.15Q234.98 0.1 233.93 0.08 232.88 0.05 231.73 0.03 230.58 0 229.48 0L229.48 0Q228.48 0 227.28 0.03 226.08 0.05 225 0.08 223.93 0.1 223.18 0.15L223.18 0.15Q223.18-0.6 223.23-1.23 223.28-1.85 223.43-2.25L223.43-2.25Q225.38-2.25 226.13-3.18 226.88-4.1 226.88-6.6L226.88-6.6 226.88-15.8 232.13-21Q232.13-20.4 232.05-19.65 231.98-18.9 231.73-18.05L231.73-18.05Q231.93-18.4 232.13-18.8 232.33-19.2 232.68-19.65L232.68-19.65Q233.58-20.8 235.43-21.95 237.28-23.1 239.83-23.1L239.83-23.1Q241.83-23.1 243.5-22.33 245.18-21.55 246.2-19.78 247.23-18 247.23-14.95L247.23-14.95ZM226.88-26.9L226.88-28.45Q226.88-29.65 226.63-30.43 226.38-31.2 225.58-31.6 224.78-32 223.13-32L223.13-32Q223.13-32.6 223.23-33.15 223.33-33.7 223.58-34.15L223.58-34.15Q224.63-34.15 226.13-34.4 227.63-34.65 228.95-35.05 230.28-35.45 230.93-35.85L230.93-35.85Q231.43-35.65 231.78-35.15 232.13-34.65 232.13-33.65L232.13-33.65 232.13-26.9 226.88-26.9ZM226.88-14.9L226.88-28.7 232.13-28.7 232.13-21 226.88-14.9ZM260.68-5.35L260.68-5.35Q261.63-5 262.08-4.08 262.53-3.15 262.53-1.5L262.53-1.5Q262.53 1.5 260.93 4.33 259.33 7.15 257.13 9.25L257.13 9.25Q256.58 9.25 256.03 9.03 255.48 8.8 255.18 8.4L255.18 8.4Q258.38 4.8 258.38 2.1L258.38 2.1Q258.38 1.05 257.75 0.4 257.13-0.25 255.83-0.4L255.83-0.4Q255.83-1.1 255.95-2.05 256.08-3 256.33-3.8L256.33-3.8Q257.58-4.05 258.7-4.42 259.83-4.8 260.68-5.35ZM278.12-33.95L278.12-33.95Q278.92-33.9 280.15-33.88 281.37-33.85 282.75-33.83 284.12-33.8 285.35-33.8 286.57-33.8 287.32-33.8L287.32-33.8 287.32-7.3Q287.32-5.4 287.67-4.35 288.02-3.3 289.02-2.9 290.02-2.5 291.77-2.5L291.77-2.5 291.47 0Q290.07 0 288.2 0 286.32 0 284.35 0.03 282.37 0.05 280.72 0.08 279.07 0.1 278.12 0.15L278.12 0.15Q278.12-0.6 278.17-1.23 278.22-1.85 278.37-2.25L278.37-2.25Q279.72-2.35 280.47-2.78 281.22-3.2 281.52-4.25 281.82-5.3 281.82-7.3L281.82-7.3 281.82-27Q281.82-28.8 281.52-29.73 281.22-30.65 280.47-31.05 279.72-31.45 278.37-31.55L278.37-31.55Q278.22-32 278.17-32.65 278.12-33.3 278.12-33.95ZM301.42-8.85L301.42-8.85Q302.32-8.65 302.95-8.35 303.57-8.05 304.07-7.6L304.07-7.6Q303.52-5.9 303.15-3.83 302.77-1.75 302.52 0.1L302.52 0.1Q301.47 0.05 299.75 0.05 298.02 0.05 295.9 0.03 293.77 0 291.47 0L291.47 0 291.77-2.5 292.17-2.5Q295.47-2.5 297.2-3.23 298.92-3.95 299.82-5.35 300.72-6.75 301.42-8.85ZM298.02-22.55L298.02-22.55Q297.97-21.3 297.95-19.88 297.92-18.45 297.92-17.05L297.92-17.05Q297.92-15.6 297.95-14.05 297.97-12.5 298.02-11.2L298.02-11.2Q297.27-11.2 296.65-11.28 296.02-11.35 295.42-11.5L295.42-11.5Q295.22-14 294.1-14.9 292.97-15.8 290.02-15.8L290.02-15.8 286.52-15.8 286.52-18.2 290.02-18.2Q293.02-18.2 294.15-19 295.27-19.8 295.32-22.15L295.32-22.15Q296.02-22.4 296.67-22.48 297.32-22.55 298.02-22.55ZM301.27-33.95L301.27-33.95Q301.37-32.85 301.52-31.35 301.67-29.85 301.87-28.43 302.07-27 302.32-25.9L302.32-25.9Q301.87-25.55 301.2-25.4 300.52-25.25 299.67-25.25L299.67-25.25Q299.52-26.85 298.82-28.28 298.12-29.7 296.45-30.63 294.77-31.55 291.67-31.55L291.67-31.55 286.12-31.55 287.27-33.8Q291.17-33.8 293.97-33.83 296.77-33.85 298.57-33.9 300.37-33.95 301.27-33.95ZM323.37 0.45L323.37 0.45Q322.77 0.2 322.42-0.48 322.07-1.15 322.07-2.5L322.07-2.5Q322.07-3 322.14-3.68 322.22-4.35 322.37-4.95L322.37-4.95 322.52-4.95Q322.32-4 321.74-3.05 321.17-2.1 320.32-1.35L320.32-1.35Q319.42-0.6 318.07-0.13 316.72 0.35 314.87 0.35L314.87 0.35Q311.67 0.35 309.94-1.07 308.22-2.5 308.22-5.05L308.22-5.05Q308.22-7 309.14-8.38 310.07-9.75 311.54-10.68 313.02-11.6 314.77-12.15 316.52-12.7 318.24-13.03 319.97-13.35 321.37-13.55L321.37-13.55Q321.37-15.45 321.29-16.55 321.22-17.65 320.99-18.32 320.77-19 320.32-19.5L320.32-19.5Q319.72-20.2 318.97-20.55 318.22-20.9 317.32-20.9L317.32-20.9Q315.72-20.9 314.82-19.93 313.92-18.95 313.52-17.63 313.12-16.3 313.02-15.15L313.02-15.15Q312.32-15.15 311.42-15.25 310.52-15.35 309.97-15.55L309.97-15.55Q310.07-16.85 310.04-18.4 310.02-19.95 309.72-21.15L309.72-21.15Q311.82-22.2 314.22-22.78 316.62-23.35 318.67-23.35L318.67-23.35Q320.82-23.35 322.27-22.8 323.72-22.25 324.52-21.35L324.52-21.35Q325.77-20.15 326.22-18.18 326.67-16.2 326.67-12.8L326.67-12.8 326.67-7.65Q326.67-6.2 326.89-5.35 327.12-4.5 327.77-4.13 328.42-3.75 329.72-3.7L329.72-3.7Q329.77-3.1 329.69-2.4 329.62-1.7 329.37-1.1L329.37-1.1Q327.97-1.05 326.32-0.65 324.67-0.25 323.37 0.45ZM316.57-2.8L316.57-2.8Q317.67-2.8 318.77-3.53 319.87-4.25 320.62-5.73 321.37-7.2 321.37-9.6L321.37-9.6 321.37-11.35Q320.07-11.15 318.72-10.85 317.37-10.55 316.24-10 315.12-9.45 314.44-8.55 313.77-7.65 313.77-6.15L313.77-6.15Q313.77-4.4 314.62-3.6 315.47-2.8 316.57-2.8ZM342.17 0.45L342.17 0.45Q339.07 0.45 337.54-1.15 336.02-2.75 336.02-6.4L336.02-6.4 336.02-19.3Q335.27-19.55 334.44-19.73 333.62-19.9 332.42-19.95L332.42-19.95Q332.42-20.65 332.52-21.2 332.62-21.75 332.87-22.4L332.87-22.4 336.02-22.4 336.02-28.85Q337.22-29.1 338.39-29.7 339.57-30.3 340.37-31L340.37-31Q340.92-30.8 341.12-30.35 341.32-29.9 341.32-28.25L341.32-28.25 341.32-22.4 347.72-22.4Q347.72-21.8 347.62-21.15 347.52-20.5 347.27-19.9L347.27-19.9Q345.47-19.9 343.99-19.7 342.52-19.5 341.32-19.25L341.32-19.25 341.32-7.4Q341.32-5.65 341.64-4.58 341.97-3.5 342.59-3 343.22-2.5 344.12-2.5L344.12-2.5Q345.12-2.5 345.89-2.78 346.67-3.05 347.37-3.6L347.37-3.6Q348.02-2.8 348.12-1.7L348.12-1.7Q347.27-0.8 345.57-0.18 343.87 0.45 342.17 0.45ZM384.06 0.45L384.06 0.45Q383.16-1.15 382.54-2.27 381.91-3.4 381.41-4.45 380.91-5.5 380.26-6.65L380.26-6.65Q379.36-8.45 378.51-9.85 377.66-11.25 376.56-12.63 375.46-14 373.81-15.65L373.81-15.65 375.36-15.05Q374.01-15 372.94-15 371.86-15 370.81-15.05L370.81-15.05 370.86-17.65Q371.61-17.55 372.16-17.5 372.71-17.45 373.31-17.45L373.31-17.45Q375.86-17.45 377.94-18.23 380.01-19 381.24-20.6 382.46-22.2 382.46-24.75L382.46-24.75Q382.46-27.75 380.66-29.6 378.86-31.45 374.66-31.45L374.66-31.45Q373.61-31.45 372.76-31.35 371.91-31.25 370.96-31L370.96-31 371.21-31.8 371.21-6.9Q371.21-5.1 371.51-4.1 371.81-3.1 372.51-2.73 373.21-2.35 374.41-2.25L374.41-2.25Q374.56-1.8 374.61-1.15 374.66-0.5 374.66 0.15L374.66 0.15Q373.61 0.05 372.41 0.03 371.21 0 370.11 0 369.01 0 368.26 0L368.26 0Q366.86 0 365.06 0.03 363.26 0.05 362.01 0.15L362.01 0.15Q362.01-0.5 362.06-1.13 362.11-1.75 362.26-2.25L362.26-2.25Q363.61-2.35 364.36-2.75 365.11-3.15 365.41-4.1 365.71-5.05 365.71-6.8L365.71-6.8 365.71-27Q365.71-28.8 365.41-29.75 365.11-30.7 364.36-31.1 363.61-31.5 362.26-31.55L362.26-31.55Q362.11-32.1 362.06-32.73 362.01-33.35 362.01-33.9L362.01-33.9Q362.86-33.85 364.69-33.83 366.51-33.8 368.41-33.8L368.41-33.8Q370.36-33.8 372.59-33.85 374.81-33.9 377.06-33.9L377.06-33.9Q380.96-33.9 383.41-32.77 385.86-31.65 387.04-29.73 388.21-27.8 388.21-25.35L388.21-25.35Q388.21-22.9 387.09-20.95 385.96-19 383.94-17.73 381.91-16.45 379.16-15.9L379.16-15.9 379.56-16.5Q380.96-15.2 381.94-14 382.91-12.8 383.94-11.18 384.96-9.55 386.41-7.05L386.41-7.05Q387.36-5.35 388.16-4.38 388.96-3.4 389.99-2.95 391.01-2.5 392.71-2.4L392.71-2.4Q392.71-1.75 392.66-1.18 392.61-0.6 392.46 0L392.46 0Q390.26 0 388.06 0.08 385.86 0.15 384.06 0.45ZM407.41 0.45L407.41 0.45Q403.86 0.45 401.23-1.03 398.61-2.5 397.18-5.15 395.76-7.8 395.76-11.4L395.76-11.4Q395.76-14.9 397.28-17.6 398.81-20.3 401.46-21.83 404.11-23.35 407.46-23.35L407.46-23.35Q411.21-23.35 413.81-21.85 416.41-20.35 417.76-17.7 419.11-15.05 419.11-11.5L419.11-11.5Q419.11-8.05 417.66-5.33 416.21-2.6 413.58-1.07 410.96 0.45 407.41 0.45ZM407.91-2.2L407.91-2.2Q410.71-2.2 412.06-4.58 413.41-6.95 413.41-10.75L413.41-10.75Q413.41-13.85 412.53-16.13 411.66-18.4 410.18-19.58 408.71-20.75 406.96-20.75L406.96-20.75Q404.21-20.75 402.86-18.45 401.51-16.15 401.51-12.55L401.51-12.55Q401.51-9.35 402.28-7 403.06-4.65 404.51-3.43 405.96-2.2 407.91-2.2ZM439.31-21.65L439.31-21.65Q439.25-20.4 439.25-19.05 439.25-17.7 439.45-16.4L439.45-16.4Q438.91-16.1 438.13-15.93 437.36-15.75 436.56-15.75L436.56-15.75Q436.45-17.1 435.78-18.3 435.11-19.5 433.95-20.25 432.81-21 431.2-21L431.2-21Q429.75-21 428.91-20.3 428.06-19.6 428.06-18.45L428.06-18.45Q428.06-17.65 428.41-17.03 428.75-16.4 430-15.68 431.25-14.95 433.86-13.9L433.86-13.9Q436.61-12.9 438.16-11.88 439.7-10.85 440.38-9.63 441.06-8.4 441.06-6.6L441.06-6.6Q441.06-4.5 439.83-2.9 438.61-1.3 436.43-0.43 434.25 0.45 431.5 0.45L431.5 0.45Q428.45 0.45 426.63-0.03 424.81-0.5 423-1.35L423-1.35Q423.16-2.2 423.18-3.35 423.2-4.5 423.2-5.63 423.2-6.75 423.11-7.55L423.11-7.55Q423.56-7.9 424.41-8.05 425.25-8.2 426.06-8.2L426.06-8.2Q426.45-5.15 427.93-3.65 429.41-2.15 431.86-2.15L431.86-2.15Q433.7-2.15 434.78-2.98 435.86-3.8 435.86-5.15L435.86-5.15Q435.86-6 435.43-6.65 435-7.3 433.91-7.93 432.81-8.55 430.61-9.4L430.61-9.4Q428-10.45 426.38-11.4 424.75-12.35 424-13.68 423.25-15 423.25-17.05L423.25-17.05Q423.25-18.65 424.06-19.85 424.86-21.05 426.13-21.83 427.41-22.6 428.93-22.98 430.45-23.35 431.86-23.35L431.86-23.35Q434.25-23.35 436-22.93 437.75-22.5 439.31-21.65ZM458.65-6.2L462.1-14.9Q463.35-17.95 462.73-19.07 462.1-20.2 460.05-20.6L460.05-20.6Q459.85-21.15 459.75-21.78 459.65-22.4 459.65-23L459.65-23Q460.8-22.95 462.03-22.93 463.25-22.9 464.6-22.9L464.6-22.9Q466-22.9 467.25-22.93 468.5-22.95 469.6-23L469.6-23Q469.6-22.45 469.55-21.83 469.5-21.2 469.25-20.6L469.25-20.6Q468.35-20.4 467.75-19.93 467.15-19.45 466.6-18.45 466.05-17.45 465.3-15.65L465.3-15.65 457.95 1.85Q456.55 5.25 455.4 7.35 454.25 9.45 453.25 10.55 452.25 11.65 451.25 12.05 450.25 12.45 449.1 12.45L449.1 12.45Q447.55 12.45 446.58 12 445.6 11.55 445.05 11.05L445.05 11.05Q444.85 10.25 444.9 9.08 444.95 7.9 445.15 7.15L445.15 7.15Q446 7.3 446.93 7.43 447.85 7.55 448.8 7.55L448.8 7.55Q450.25 7.55 451.53 6.88 452.8 6.2 453.75 4.7L453.75 4.7Q454.35 3.75 455.73 0.78 457.1-2.2 458.65-6.2L458.65-6.2ZM458.85-4.45L456.05 1.35Q454.8-1.35 453.45-4.35 452.1-7.35 450.85-10.13 449.6-12.9 448.65-14.9L448.65-14.9Q447.6-17.2 446.85-18.35 446.1-19.5 445.45-19.98 444.8-20.45 444-20.6L444-20.6Q443.85-21.1 443.75-21.73 443.65-22.35 443.65-23L443.65-23Q445.1-22.95 446.65-22.93 448.2-22.9 449.6-22.9L449.6-22.9Q451.05-22.9 453.03-22.93 455-22.95 456.55-23L456.55-23Q456.55-22.3 456.48-21.68 456.4-21.05 456.2-20.6L456.2-20.6Q453.6-20.15 453.23-19.1 452.85-18.05 454.2-15.35L454.2-15.35Q454.9-13.9 455.75-11.95 456.6-10 457.43-8.03 458.25-6.05 458.85-4.45L458.85-4.45ZM483.75-33.8L483.75-33.8Q483.45-30.85 483.1-27.1 482.75-23.35 482.48-19.4 482.2-15.45 482.05-11.75L482.05-11.75Q481.45-11.55 480.78-11.48 480.1-11.4 479.3-11.4L479.3-11.4Q479.05-16.05 478.75-19.85 478.45-23.65 478.07-27.1 477.7-30.55 477.2-34L477.2-34Q478-34.15 479.07-34.43 480.15-34.7 481.15-35.05 482.15-35.4 482.8-35.7L482.8-35.7Q483.4-35.5 483.65-35.08 483.9-34.65 483.75-33.8ZM483.95-2.85L483.95-2.85Q483.95-1.25 482.98-0.43 482 0.4 480.65 0.4L480.65 0.4Q479.15 0.4 478.3-0.45 477.45-1.3 477.45-2.6L477.45-2.6Q477.45-3.95 478.4-4.88 479.35-5.8 480.85-5.8L480.85-5.8Q482.3-5.8 483.13-4.83 483.95-3.85 483.95-2.85Z" opacity="1" transform="matrix(1,0,0,1,0,0)" fill="#000000" class="slogan-text-1" data-fill-palette-color="secondary" id="text-1"></path></svg></g></svg></g></svg></g></svg></g><g transform="matrix(1,0,0,1,251.86227068491021,0)"><svg viewBox="0 0 58.87858845020959 73.63374368540318" height="73.63374368540318" width="58.87858845020959"><g><svg xmlns="http://www.w3.org/2000/svg" xmlns:xlink="http://www.w3.org/1999/xlink" version="1.1" x="0" y="0" viewBox="14.017646406981726 5 71.96527971141752 90" enable-background="new 0 0 100 100" xml:space="preserve" height="73.63374368540318" width="58.87858845020959" class="icon-icon-0" data-fill-palette-color="accent" id="icon-0"><g fill="#e8cef5" data-fill-palette-color="accent"><path fill-rule="evenodd" clip-rule="evenodd" d="M80.208 8.35C79.375 8.784 78.024 8.917 76.158 8.75 74.324 8.55 72.774 8.117 71.508 7.45 74.041 6.717 76.941 7.017 80.208 8.35M77.908 15.45C79.408 15.016 81.375 15.067 83.807 15.6 84.54 15.767 85.074 16.3 85.408 17.2 85.774 18.167 85.958 19.333 85.958 20.7 86.058 26.3 85.857 30.9 85.357 34.5 84.991 37 84.807 40.083 84.807 43.75 84.874 47.917 84.908 51.034 84.908 53.1 84.774 60.967 84.758 69.867 84.857 79.8 84.857 83 83.541 85.366 80.908 86.9A25.7 25.7 0 0 1 73.107 89.8C68.174 90.766 61.307 91.133 52.507 90.9L39.207 90.15C33.84 89.85 29.39 89.783 25.856 89.95 24.823 89.983 24.124 89.933 23.756 89.8 23.023 89.567 22.606 88.967 22.506 88 21.006 87 20.173 85.583 20.006 83.75 20.006 83.55 20.089 81.9 20.256 78.8 20.289 77.967 20.239 76.883 20.106 75.55 19.973 73.85 19.907 72.75 19.907 72.25 19.573 64.483 19.473 58.617 19.606 54.65 19.707 50.583 19.756 47.883 19.756 46.55 19.656 43.516 19.373 40.833 18.906 38.5 18.739 37.534 18.706 36.034 18.805 34 18.538 28.2 18.105 23.65 17.505 20.35 17.372 19.717 17.422 19.333 17.655 19.2 18.054 18.933 18.288 18.583 18.354 18.15 18.354 18.016 18.337 17.6 18.304 16.9 18.004 14.4 19.155 12.817 21.754 12.15 26.188 11.016 31.837 10.716 38.704 11.25 39.204 11.317 39.987 11.4 41.054 11.5 43.321 11.4 46.271 11.4 49.905 11.5 54.571 11.733 57.505 11.85 58.705 11.85 60.238 11.85 62.372 12.034 65.104 12.4 68.137 12.8 70.271 13.033 71.504 13.1 72.971 13.167 74.054 13.167 74.754 13.1 75.654 13 76.104 13.333 76.104 14.1 76.104 14.833 75.622 15.2 74.655 15.2L73.455 14.95C72.155 14.75 71.305 15.367 70.905 16.8 70.637 17.633 70.471 18.917 70.405 20.65L70.255 26.65C70.255 27.483 69.905 28.033 69.205 28.3 68.538 28.5 68.005 28.167 67.604 27.3 67.104 26.333 66.137 25.1 64.705 23.6 64.005 24.3 63.305 25.567 62.604 27.4 62.271 28.366 61.655 28.75 60.754 28.55 60.121 28.417 59.804 27.866 59.804 26.9L59.504 18.2C59.471 17.533 59.438 16.533 59.404 15.2 59.171 14.033 58.47 13.483 57.303 13.55 55.87 13.616 53.487 13.516 50.154 13.25 47.053 13.05 44.654 13.034 42.954 13.2 42.187 13.3 41.237 13.283 40.103 13.15A59 59 0 0 0 37.253 12.9C35.553 12.9 34.253 12.85 33.353 12.75 30.853 12.517 28.487 12.983 26.253 14.15 24.486 15.116 22.62 16.633 20.653 18.7 20.12 19.3 19.92 20.016 20.052 20.85 20.285 21.883 20.436 22.7 20.502 23.3 21.068 22.667 22.619 21.183 25.152 18.85 27.051 17.15 28.468 15.65 29.402 14.35L30.002 13.7C30.235 13.5 30.502 13.533 30.802 13.8 31.302 14.233 31.219 14.733 30.552 15.3L21.903 23.25C21.003 24.184 20.503 24.85 20.403 25.25 20.302 25.617 20.385 26.45 20.653 27.75L29.352 19.8C29.885 19.366 30.319 19.317 30.653 19.65 31.12 20.116 31.019 20.533 30.352 20.9 29.552 21.366 28.653 22.1 27.653 23.1L25.253 25.5C24.92 25.767 24.02 26.684 22.553 28.25 21.053 29.85 20.586 31.934 21.154 34.5L28.853 27.1A10.3 10.3 0 0 1 30.404 25.8C30.57 25.633 30.77 25.65 31.004 25.85 31.171 25.95 31.254 26.05 31.254 26.15A0.48 0.48 0 0 1 31.104 26.6L29.254 28.5C25.82 31.534 23.671 33.467 22.804 34.3 21.637 35.433 21.004 36.366 20.905 37.1 20.838 37.833 21.172 39.067 21.905 40.8 23.372 39.667 25.488 37.55 28.255 34.45L29.305 33.05C29.605 32.75 29.872 32.683 30.105 32.85 30.539 33.017 30.605 33.333 30.305 33.8 29.372 34.967 28.656 35.8 28.156 36.3 26.656 37.9 25.489 39.033 24.656 39.7 21.956 41.833 21.022 44.533 21.855 47.8L30.505 38.75C30.705 39.45 30.672 40.083 30.405 40.65 30.304 40.85 30.005 41.216 29.505 41.75L25.255 45.95C23.955 47.183 23.038 48.35 22.505 49.45 21.838 50.817 21.605 52.283 21.805 53.85 21.805 54.05 21.755 54.75 21.656 55.95 21.589 56.817 21.673 57.567 21.906 58.2 23.039 57.133 24.406 55.45 26.006 53.15 27.673 50.716 28.956 49.016 29.856 48.05L30.556 48.55C29.123 50.75 28.039 52.35 27.306 53.35 26.039 55.083 24.823 56.55 23.657 57.75 21.757 59.684 21.24 62.3 22.106 65.6L28.856 56.6C29.023 56.3 29.273 56.217 29.606 56.35 30.106 56.55 30.173 56.883 29.806 57.35L28.006 59.7C27.506 60.333 25.806 62.567 22.906 66.4 22.305 67.2 21.956 68.083 21.855 69.05 21.822 69.75 21.906 70.817 22.105 72.25 23.439 70.917 25.439 68.45 28.105 64.85 28.138 64.75 28.322 64.4 28.656 63.8 28.923 63.366 29.256 63.25 29.656 63.45 30.089 63.717 30.156 64.083 29.855 64.55L27.255 68.15A56 56 0 0 1 23.855 72.4C22.522 74.067 22.088 75.833 22.555 77.7 22.922 77.8 23.255 77.717 23.555 77.45 23.689 77.283 23.872 76.983 24.105 76.55L28.555 70.55C28.689 70.383 28.872 70.083 29.105 69.65 29.406 69.417 29.739 69.45 30.105 69.75 30.406 69.983 30.456 70.233 30.255 70.5 29.922 70.767 29.705 70.967 29.605 71.1L23.656 79.45C22.989 80.483 22.623 81.367 22.555 82.1 22.522 82.867 22.722 84.05 23.156 85.65 23.722 84.283 24.789 82.75 26.355 81.05 28.123 79.25 29.222 77.883 29.656 76.95 30.089 76.15 30.589 75.95 31.156 76.35 31.489 76.583 31.605 76.833 31.506 77.1 31.44 77.2 31.239 77.433 30.906 77.8L25.506 83.8C25.039 84.233 24.723 84.55 24.556 84.75 24.256 85.15 24.339 85.55 24.806 85.95 25.206 86.283 25.606 86.283 26.006 85.95 26.072 85.85 26.373 85.483 26.906 84.85 28.173 83.483 29.222 82.05 30.055 80.55 30.355 80.05 30.705 79.95 31.105 80.25 31.439 80.45 31.489 80.8 31.255 81.3A23 23 0 0 1 28.355 85.1C27.888 85.567 27.555 85.933 27.355 86.2 26.956 86.6 26.689 87.05 26.555 87.55 27.422 87.85 28.105 87.917 28.605 87.75 29.239 87.583 29.706 87.1 30.005 86.3 30.238 85.667 30.622 85.467 31.155 85.7 31.455 85.833 31.604 86.016 31.604 86.25 31.571 86.35 31.471 86.583 31.304 86.95 31.104 87.317 31.121 87.583 31.354 87.75 31.488 87.85 31.771 87.917 32.205 87.95L38.205 88.3C47.672 88.733 53.354 88.967 55.255 89 61.388 89.167 66.555 88.934 70.755 88.3 72.555 88.033 74.071 87.167 75.305 85.7 76.472 84.233 77.022 82.667 76.955 81 76.854 78 76.922 74.417 77.155 70.25 77.288 67.817 77.505 64.217 77.804 59.45 77.971 56.117 77.988 52.117 77.854 47.45 77.721 44.783 77.554 40.8 77.354 35.5L77.205 28.8C77.172 26.167 77.238 23.917 77.405 22.05 77.604 20.25 77.405 18.783 76.804 17.65 76.208 16.617 76.574 15.883 77.908 15.45M79.408 18.6A186 186 0 0 0 79.357 22.15C79.158 28.883 79.257 35.183 79.658 41.05 79.958 45.15 80.091 49.217 80.057 53.25 79.624 64.317 79.374 72.633 79.307 78.2 79.307 81.633 78.741 84.55 77.607 86.95 79.307 86.15 80.557 85.266 81.357 84.3 82.191 83.233 82.625 81.9 82.658 80.3 82.658 79.9 82.708 79.15 82.807 78.05 82.874 77.083 82.89 76.333 82.857 75.8 82.824 73.7 82.974 67.433 83.307 57 83.474 51.8 83.491 47.934 83.357 45.4 83.224 43.433 83.241 41.233 83.408 38.8 83.441 37.733 83.607 35.55 83.908 32.25 84.107 28.817 84.208 26.833 84.208 26.3 84.308 24.033 84.191 22.033 83.857 20.3 83.691 19.2 83.424 18.467 83.057 18.1 82.724 17.767 82.007 17.467 80.908 17.2 80.274 17.033 79.857 17.083 79.658 17.35 79.458 17.55 79.375 17.967 79.408 18.6M65.458 7C64.758 7.567 63.808 7.767 62.607 7.6 60.64 7.3 58.09 7.067 54.958 6.9 50.824 6.7 48.308 6.55 47.408 6.45L45.857 6.35C45.524 6.25 45.357 6.034 45.357 5.7 45.357 5.333 45.557 5.15 45.958 5.15 46.258 5.05 46.658 5 47.158 5 50.557 5.067 56.425 5.483 64.758 6.25 65.058 6.25 65.291 6.5 65.458 7M61.357 15.05C61.191 18.95 61.224 21.967 61.458 24.1 62.291 23.6 62.675 22.95 62.607 22.15 62.607 21.116 62.974 20.5 63.708 20.3 64.541 20.067 65.274 20.433 65.908 21.4 66.107 21.766 66.441 22.317 66.908 23.05 67.307 23.616 67.807 24.016 68.408 24.25 68.607 23.617 68.724 22.833 68.758 21.9V19.7C68.891 17.033 68.758 15.45 68.358 14.95 67.891 14.45 66.308 14.1 63.608 13.9L62.709 13.85C61.808 13.75 61.357 14.15 61.357 15.05M60.658 35.2C60.158 35.133 59.824 35.15 59.658 35.25L51.658 33.8C50.89 33.633 50.591 33.3 50.758 32.8 50.858 32.5 51.025 32.35 51.258 32.35 51.425 32.35 51.675 32.4 52.008 32.5 52.475 32.534 53.741 32.784 55.808 33.25 57.375 33.583 58.659 33.684 59.659 33.55 60.725 33.483 61.259 33.8 61.259 34.5 61.225 34.967 61.024 35.2 60.658 35.2M59.308 37.2C60.708 36.8 61.858 37.016 62.758 37.85 63.692 38.75 64.025 39.9 63.758 41.3 63.391 43.2 63.041 44.583 62.708 45.45 62.141 46.917 61.324 48.1 60.258 49 58.692 50.4 56.758 50.983 54.458 50.75 53.925 50.684 53.524 50.65 53.258 50.65 52.791 50.683 52.442 50.866 52.208 51.2 50.941 52.733 50.041 53.917 49.508 54.75 49.375 54.917 49.591 55.333 50.158 56 52.158 58.567 53.441 60.1 54.008 60.6L55.458 62.1C55.958 62.633 55.908 63.284 55.308 64.05 54.775 64.717 54.192 64.633 53.558 63.8L49.708 58.85C48.741 57.55 48.107 56.767 47.808 56.5 47.108 57.1 46.358 57.9 45.558 58.9 44.391 60.433 43.742 61.266 43.608 61.4 43.409 61.667 42.725 62.516 41.558 63.95 41.025 64.617 40.675 65 40.508 65.1 40.041 65.433 39.608 65.433 39.208 65.1 38.708 64.633 38.625 64.2 38.958 63.8 39.158 63.533 39.524 63.2 40.058 62.8 41.192 61.4 42.958 59.366 45.358 56.7 46.558 55.4 46.692 54.15 45.758 52.95 45.391 52.483 44.675 51.4 43.608 49.7 43.008 48.6 42.075 47.967 40.808 47.8 39.742 47.7 38.458 46.817 36.958 45.15 35.491 43.516 34.708 42.15 34.607 41.05 34.607 40.683 34.741 40.45 35.007 40.35A0.8 0.8 0 0 1 35.557 40.35C35.824 40.45 36.057 40.65 36.257 40.95 36.39 41.083 36.573 41.317 36.807 41.65 37.574 42.716 38.057 43.35 38.257 43.55 38.823 44.283 39.49 44.833 40.257 45.2 40.257 44.433 40.007 43.6 39.507 42.7 38.84 41.567 38.457 40.833 38.357 40.5 38.324 40.3 38.241 40 38.107 39.6 38.074 39.267 38.208 39.017 38.507 38.85 38.907 38.617 39.357 38.9 39.857 39.7 40.024 39.933 40.491 40.8 41.257 42.3 41.823 43.4 42.39 44.217 42.957 44.75 43.657 43.784 44.007 43.017 44.007 42.45 44.04 41.817 43.724 41.1 43.057 40.3L40.757 38C40.257 37.534 40.207 37.1 40.607 36.7 41.007 36.233 41.474 36.167 42.007 36.5 43.74 37.5 44.924 38.9 45.557 40.7 46.158 42.533 46.04 44.383 45.207 46.25 44.773 47.184 44.74 47.917 45.106 48.45L48.056 53.25 50.706 50.2C51.039 49.8 51.189 49.333 51.156 48.8 50.822 46.933 51.039 45.1 51.805 43.3 52.439 42.033 53.505 40.5 55.005 38.7 55.638 37.9 56.222 37.567 56.755 37.7 57.189 37.8 57.622 37.766 58.055 37.6 58.357 37.534 58.774 37.4 59.308 37.2M54.658 47.95C55.357 48.45 56.074 48.617 56.807 48.45 58.307 48.083 59.607 47.033 60.707 45.3S62.157 41.95 61.757 40.45C61.524 39.317 60.857 38.766 59.757 38.8 58.257 38.833 56.774 39.7 55.307 41.4 53.874 43 53.257 44.583 53.457 46.15 53.591 46.883 53.991 47.483 54.658 47.95M80.857 32.35C80.324 27.717 80.59 23.833 81.658 20.7V32.35zM82.408 66.85C82.508 68.383 82.425 69.7 82.158 70.8 81.925 71.833 81.774 73.067 81.708 74.5V78.25C81.708 79.217 81.691 79.917 81.658 80.35 81.524 81.183 81.241 81.833 80.807 82.3L80.057 82.25 81.557 62.85C81.924 62.85 82.107 62.867 82.107 62.9zM54.758 71.3L49.308 71C47.708 71.1 44.775 70.967 40.508 70.6 39.641 70.6 39.241 70.317 39.308 69.75 39.341 69.317 39.742 69.167 40.508 69.3 42.375 69.6 44.641 69.766 47.308 69.8 48.808 69.833 51.091 69.866 54.159 69.9 54.592 69.9 54.876 69.933 55.009 70 55.309 70.067 55.409 70.317 55.309 70.75 55.274 71.083 55.091 71.267 54.758 71.3M61.958 70.85C62.658 70.95 62.925 71.25 62.758 71.75S62.291 72.417 61.858 72.25C61.126 72.017 60.692 71.867 60.558 71.8 60.125 71.6 59.775 71.266 59.508 70.8 59.875 70.633 60.324 70.583 60.858 70.65 61.091 70.717 61.458 70.784 61.958 70.85M63.107 93.7C63.474 93.766 63.741 93.967 63.908 94.3 63.774 94.733 63.524 94.967 63.158 95H62.158L47.758 94.95C47.258 94.95 46.975 94.933 46.908 94.9 46.607 94.733 46.441 94.516 46.408 94.25 46.307 93.883 46.474 93.65 46.908 93.55 47.241 93.483 47.524 93.467 47.758 93.5 49.525 93.767 51.908 93.833 54.908 93.7 58.408 93.567 60.807 93.55 62.107 93.65 62.308 93.684 62.641 93.7 63.107 93.7M75.458 93.2C77.225 93.067 78.391 92.9 78.958 92.7 79.524 92.5 80.491 91.833 81.857 90.7 82.991 89.733 84.074 89.183 85.107 89.05 82.674 93.35 78.357 95.05 72.158 94.15 72.891 93.65 73.991 93.333 75.458 93.2M20.008 17.4C21.508 16.5 22.725 15.317 23.658 13.85 22.557 14.15 21.724 14.517 21.158 14.95 20.591 15.517 20.208 16.333 20.008 17.4M44.008 33.5C43.008 33.367 41.991 32.883 40.958 32.05 41.791 32.083 42.975 32.133 44.508 32.2 45.841 32.266 47.025 32.467 48.058 32.8 46.391 33.4 45.041 33.633 44.008 33.5M14.658 57.6C14.125 54.433 13.925 51.95 14.057 50.15 14.057 49.417 14.307 49.033 14.807 49 15.307 49 15.557 49.367 15.557 50.1L15.607 57.9C14.975 58.034 14.658 57.934 14.658 57.6M14.308 63.35C14.341 63.05 14.541 62.883 14.909 62.85 15.342 62.817 15.641 63.15 15.808 63.85L16.208 66.15C16.441 67.983 16.558 70.466 16.558 73.6 16.591 77.267 16.641 79.75 16.708 81.05 16.808 81.917 16.541 82.383 15.908 82.45 15.375 82.483 15.057 82.067 14.958 81.2 14.857 80.4 14.857 79.45 14.958 78.35 15.024 77.75 15.141 76.817 15.308 75.55L14.308 64.2C14.241 63.767 14.241 63.483 14.308 63.35M15.408 87.9C15.208 87.433 15.375 87.15 15.908 87.05 16.508 86.983 16.89 87.317 17.057 88.05 16.957 88.65 16.757 88.967 16.457 89 16.124 89.034 15.874 88.917 15.707 88.65A17 17 0 0 1 15.408 87.9" fill="#000000" data-fill-palette-color="accent"></path></g></svg></g></svg></g></svg></g></svg></g></svg></g><g><path d="M245.816 0c68.262 0 123.6 55.338 123.6 123.6 0 68.262-55.338 123.6-123.6 123.6-57.238 0-105.389-38.907-119.449-91.717l1.156 0c14.031 52.186 61.676 90.6 118.293 90.601 67.646 0 122.484-54.838 122.483-122.484 0-67.646-54.838-122.484-122.483-122.484-56.617 0-104.262 38.414-118.293 90.601l-1.156 0c14.06-52.81 62.211-91.717 119.449-91.717z" fill="#000000" stroke="transparent" data-fill-palette-color="tertiary"></path></g></svg></g><defs></defs></svg><rect width="395.52" height="247.2" fill="none" stroke="none" visibility="hidden"></rect></g></svg></g></svg>